<svg xmlns="http://www.w3.org/2000/svg" width="24" height="24" enable-background="new 0 0 192 192" viewBox="0 0 192 192"><rect width="192" height="192" y="0" fill="none"/><g><path fill="#4285F4" d="M69.29,106c-3.46,5.97-9.91,10-17.29,10c-11.03,0-20-8.97-20-20s8.97-20,20-20 c7.38,0,13.83,4.03,17.29,10h25.55C90.3,66.54,72.82,52,52,52C27.74,52,8,71.74,8,96s19.74,44,44,44c20.82,0,38.3-14.54,42.84-34 H69.29z"/><rect width="44" height="24" x="94" y="84" fill="#FBBC04"/><path fill="#EA4335" d="M94.32,84H68v0.05c2.5,3.34,4,7.47,4,11.95s-1.5,8.61-4,11.95V108h26.32 c1.08-3.82,1.68-7.84,1.68-12S95.41,87.82,94.32,84z"/><path fill="#34A853" d="M184,106v26h-16v-8c0-4.42-3.58-8-8-8s-8,3.58-8,8v8h-16v-26H184z"/><rect width="48" height="24" x="136" y="84" fill="#188038"/></g></svg>